<?xml version="1.0" encoding="utf-8"?>
<!-- Generator: Adobe Illustrator 27.5.0, SVG Export Plug-In . SVG Version: 6.00 Build 0)  -->
<svg version="1.1" id="Capa_2" xmlns="http://www.w3.org/2000/svg" xmlns:xlink="http://www.w3.org/1999/xlink" x="0px" y="0px"
	 viewBox="0 0 2196 2050" style="enable-background:new 0 0 2196 2050;" xml:space="preserve">
<g>
	<g>
		<path style="fill:#73273B;" d="M1331.313,1403.727c-50.934-94.664-9.105-122.035-40.68-224.391
			c-15.109-11.777-28.969-25.293-41.18-40.363c-6.902,4.851-32.422,8.406-67.984,10.781c8.801,9.289,18.211,17.926,28.227,25.738
			c31.574,102.352-10.254,129.723,40.684,224.387c18.395,34.191-5.711,52.191,10.426,85.551
			c28.078,58.031,61.734,127.277,75.492,190.848c-2.227,4.859-3.496,10.242-3.496,15.93c0,8.375,2.715,16.102,7.262,22.41h62.305
			c4.543-6.309,7.25-14.035,7.25-22.41c0-21.211-17.191-38.406-38.402-38.406c-0.688,0-1.352,0.063-2.008,0.098
			c-2.68-21.844-10.879-77.727-17.844-133.758c-3.699-10.008-7.02-20.266-9.621-30.863
			C1332.902,1453.285,1349.711,1437.922,1331.313,1403.727z"/>
		<path style="fill:#73273B;" d="M450.18,937.336c1.621-91.793,51.773-190.547,136.453-243.82
			c-41.527,4.465-75.008,27.824-101.426,65.453c-12.906,13.508-23.086,32.93-30.773,57.332c-3.941,9.477-7.617,19.391-11.07,29.734
			c-37.961,80.586-55.031,190.078-41.414,313.402c0.203,1.723,0.363,3.355,0.543,5.066c-5.18,227.82-27.598,307.203-95.098,426.316
			c29.188-3.535,59.453-23.512,87.367-56.91c-7.957,27.898-18.117,55.758-30.617,86.242c29.328-7.398,57.563-32.246,81.469-70.691
			c-3.113,14.066-6.645,28.426-10.605,43.469c30.379-9.5,57.625-59.816,73.566-137.477c2.855,9.906,6.043,19.477,8.992,27.414
			c29.629,79.738,60.586,142.336,68.723,193.41c-2.223,4.859-3.496,10.242-3.496,15.93c0,8.375,2.715,16.102,7.262,22.41h62.297
			c4.551-6.309,7.262-14.035,7.262-22.41c0-21.211-17.195-38.406-38.406-38.406c-0.691,0-1.348,0.063-2.023,0.098
			c-2.441-19.98-9.512-68.457-16.031-119.457c-10.594-32.738-23.887-98.004-24.828-113.305
			C566.922,1235.043,447.512,1088.754,450.18,937.336z"/>
		<g>
			<path style="fill:#EB7A33;" d="M1872.027,736.094c-29.273-25.844-60.637-121.609-72.102-145.07
				c-10.527-21.555,2.547-17.094-2.73-42.746c-10.133-49.25-24.805-75.164-42.934-88.547c-11.441,20.328-32.141-6.434-39.086-1.117
				c-3.535,2.711,10.203,12.637,6.887,15.637c-7.375,6.668-28.609,2.938-42.574-0.289c8.531-17.598,16.324-39.426,19.941-59.492
				c0.332-1.852,0.617-3.672,0.91-5.5c6.684-41.492,3.184-75.879-8.328-77.953c-10.371-1.863-23.77,23.023-32.348,58.023
				c-1.383,5.633-2.648,11.496-3.746,17.582c-3.863,21.414-7.832,45.668-9.504,65.164c-0.691,0.449-1.387,0.891-2.008,1.488
				c-4.402,4.25-5.516,10.969-9.152,15.762c-5.621,7.391-15.273,6.879-22.527,11.746c-10.867,7.281-8.652,22.094-13.918,32.617
				c-1.531,3.074-3.793,8.859-7.488,9.852c-4.402,1.184-7.375-3.965-11.285-4.816c-7.988-1.746-8.695,10.609-9.824,15.75
				c-1.969,8.891-5.645,17.473-12.68,23.535c-4.785,4.121-10.816,5.981-16.012,9.492c-7.332,4.965-10.879,12.652-15.457,19.93
				c-5.348,8.492-11.902,16.133-19.941,22.184c-7.984,6-18.336,10-18.602-4.199c-11.238,9.988-12.391,29.652-22.832,41.262
				c-6.188,6.894-19.926,28.969-30.84,26.5c-0.289-3.613,0.543-8.066-0.781-11.18c-4.09,8.551-9.395,16.914-15.535,24.254
				c64.473,54.941,137.512,99.988,215.551,132.563c9.289-39.203,18.637-90.027,22.48-161.445
				c29.18,75.98,70.832,66.363,131.727,119.07C1844.094,874.488,1922.867,764.863,1872.027,736.094z"/>
			<path style="fill:#EB7A33;" d="M1446.191,841.434c-4.469-2.977-8.891-6.019-13.301-9.059c-4.391-3.031-8.754-6.086-13.098-9.184
				c-4.359-3.113-8.727-6.231-13.039-9.414c-5.98-4.418-11.871-8.922-17.734-13.48c-21.566-16.738-42.281-34.523-62.266-53.082
				c-12.184,12.961-27.637,28.227-43.109,37.277c-15.117,8.84-11.82-11.563-12.016-20.863c-14.801,9.316-29.832,17.98-45.938,24.875
				c-10.688,4.574-25.262,12.559-37.172,12.879c-5.105,0.141,15.496-65.344,30.281-102.754c-13.758,1.563-28.863,2.332-45.352,2.394
				c-3.574,1.176-7.488,2.27-11.738,3.273l-1.871,276.141H998.727c0,0-8.105-189.453-2.07-271.238
				c-12.313-1.02-24.91-2.273-37.734-3.801c-9.621-1.144-19.074-2.41-28.363-3.769l-2.305,271.875H728.141
				c0,0-10.035-211.414-2.644-319.516c-52.828-0.168-99.547,14.789-138.863,39.527c-84.68,53.273-134.832,152.027-136.453,243.82
				c-2.668,151.418,116.742,297.707,128.144,483.801c0.941,15.301,14.234,80.566,24.828,113.305
				c1.606,4.93,3.137,9.145,4.567,12.316c30.68,68.348,48.375,87.965,59.508,133.359c1.27,5.195-3.496,10.246-3.496,15.934
				c0,8.375,2.715,16.102,7.262,22.414h62.297c4.551-6.313,7.262-14.039,7.262-22.414c0-21.211-17.195-38.41-38.406-38.41
				c-0.691,0-1.648,0.668-2.023,0.102c-20.523-30.957-42.93-161.867-42.93-220.848c0-26.973,30.594-107.684,42.457-127.375
				c11.809-19.613,28.203-35.762,45.242-56.516c8.031-27.117,12.52-55.297,13.371-83.637
				c-9.246,38.219-24.406,74.469-45.039,106.867c-9.586-8.16-19.184-16.316-28.781-24.477
				c23.117-36.281,38.383-78.086,44.961-121.965l-0.344-41.039h198.254l-0.328,41.039c1.074,7.188,2.473,14.293,4.008,21.352
				c16.887,0.688,34.668,1.223,52.832,1.598c7.488-17.398,12.887-35.754,15.918-54.66l-0.258-30.898h159.598l-0.266,30.898
				c2.883,18.004,7.922,35.512,14.855,52.164c2.648-0.16,5.246-0.32,7.797-0.492c35.563-2.375,61.082-5.93,67.984-10.781
				c12.211,15.07,26.07,28.586,41.18,40.363c31.574,102.355-10.254,129.727,40.68,224.391c18.398,34.195,1.59,49.559,10.43,85.551
				c2.602,10.598,5.922,20.855,9.621,30.863c22.402,60.551,60.789,111.207,65.867,159.977c0.559,5.324-3.492,10.246-3.492,15.934
				c0,8.375,2.711,16.102,7.262,22.414h62.301c4.543-6.313,7.254-14.039,7.254-22.414c0-21.211-17.191-38.41-38.402-38.41
				c-0.688,0-1.352,0.066-2.008,0.102c-4.949-40.355-33.285-305.438-22.988-325.996c21.59-43.09,31.652-115.523,73.227-206.129
				c23.52-51.269,93.457-80.406,110.793-196.516c-50.785-20.824-99.77-46.227-146.281-75.602
				C1458.621,849.535,1452.379,845.535,1446.191,841.434z"/>
			<path style="fill:#EB7A33;" d="M1081.289,1153.207c1.836-0.02,3.664-0.039,5.484-0.066c-1.262-8.43-2.168-16.918-2.621-25.445
				C1082.73,1136.121,1081.781,1144.645,1081.289,1153.207z"/>
			<path style="fill:#EB7A33;" d="M1020.762,1153.285c1.195-8.43,1.945-16.91,2.219-25.418c-2.231,8.609-4.934,17.059-8,25.359
				C1016.906,1153.246,1018.832,1153.27,1020.762,1153.285z"/>
			<path style="fill:#EB7A33;" d="M1137.629,1151.934c1.816-0.066,3.602-0.137,5.391-0.207c-2.832-7.816-5.344-15.77-7.438-23.859
				C1135.84,1135.922,1136.539,1143.949,1137.629,1151.934z"/>
		</g>
		<path style="fill:#73273B;" d="M926.984,1129.793l0.328-41.039H729.059l0.344,41.039c-6.578,43.879-21.844,85.684-44.961,121.965
			c9.598,8.16,19.195,16.316,28.781,24.477c20.633-32.398,35.793-68.648,45.039-106.867c-0.852,28.34-5.34,56.52-13.371,83.637
			c-0.894,3.008-1.793,6.008-2.769,8.984c11.125,4.895,22.269,9.781,33.398,14.664c5.246-15.953,9.336-32.281,12.375-48.813
			c2.215-0.383,4.426-0.766,6.629-1.148c0.207,14.34,1.211,28.703,3.039,43.012c11.793-2.027,23.582-4.059,35.363-6.094
			c-4.078-31.574-3.566-63.48,1.332-94.465c1.977,39.617,10.086,78.773,24.25,115.508c7.141-3.672,14.277-7.355,21.418-11.031
			c0.32,1.008,0.605,2.027,0.934,3.031c11.145-4.883,22.27-9.77,33.41-14.664c-9.816-29.84-15.207-61.145-16.137-92.621
			c9.238,38.219,24.387,74.469,45.023,106.867c9.598-8.16,19.184-16.316,28.789-24.477c-19.336-30.336-33.09-64.566-40.953-100.613
			C929.457,1144.086,928.059,1136.98,926.984,1129.793z"/>
		<path style="fill:#73273B;" d="M728.141,973.504h200.113l2.305-271.875c9.289,1.359,18.742,2.625,28.363,3.769
			c12.824,1.527,25.422,2.781,37.734,3.801c69.078,5.719,128.863,3.617,165.055-4.902c4.25-1.004,8.164-2.098,11.738-3.273
			c15.09-4.961,24-11.449,24.934-19.305c0.828-6.922-6.414-47.133-16.984-49.121c-10.582-1.981-24.48,34.262-44.168,34.531
			c-41.438,0.57-100.563,3.172-166.676-4.691c-77.586-9.219-112.137-22.371-155.926-31.848
			c-9.711-2.102-31.938-46.563-38.934-47.211c-13.836-1.293-43.141,35.352-44.023,42.855c-0.832,6.984,4.719,14.398,15.449,21.832
			c-9.098-0.461-16.516,0.09-21.352,2.066c-0.09,1.266-0.18,2.559-0.273,3.855C718.105,762.09,728.141,973.504,728.141,973.504z"/>
		<path style="fill:#2DB6B9;" d="M1590.035,861.195l-22.281-43.523l-44.824,4.73l-18.246-43.313l-46.039,1.152l-14.59-43.676
			l-46.938-2.402l-2.535-10.219c-2.938,1.617-5.879,3.617-8.844,5.547l3.512,14.211l47.535,2.434l14.781,44.223l46.594-1.18
			l18.5,43.867l45.355-4.781l21.672,42.336l40.348,3.574l3.57,0.313c0.816-2.703,1.621-5.406,2.434-8.109
			c0.164-0.527,0.328-1.063,0.48-1.598L1590.035,861.195z"/>
		<g>
			<path style="fill:#BEC7D5;" d="M1158.816,1098.082l0.266-30.898H999.484l0.258,30.898c-3.031,18.906-8.43,37.262-15.918,54.66
				c-5.586,12.996-12.316,25.465-20.273,37.148c7.719,6.137,15.449,12.281,23.168,18.418c11.648-17.086,21.07-35.625,28.262-55.082
				c3.066-8.301,5.769-16.75,8-25.359c-0.274,8.508-1.024,16.988-2.219,25.418c-2.129,15.047-5.715,29.898-10.777,44.297
				c8.969,3.691,17.938,7.367,26.895,11.051c4.227-12.02,7.512-24.309,9.961-36.75c1.777-0.281,3.555-0.582,5.332-0.863
				c0.168,10.797,0.977,21.605,2.449,32.371c9.496-1.523,18.98-3.055,28.465-4.578c-2.102-15.184-2.672-30.461-1.797-45.605
				c0.492-8.563,1.441-17.086,2.863-25.512c0.453,8.527,1.359,17.016,2.621,25.445c3.156,21.07,8.766,41.758,16.926,61.508
				c5.734-2.77,11.488-5.539,17.238-8.301c0.25,0.754,0.477,1.527,0.746,2.285c8.969-3.684,17.934-7.359,26.898-11.051
				c-5.219-14.832-8.852-30.137-10.953-45.648c-1.09-7.984-1.789-16.012-2.047-24.066c2.094,8.09,4.605,16.043,7.438,23.859
				c7.258,20.004,16.875,39.059,28.813,56.582c7.746-6.137,15.457-12.281,23.176-18.418c-8.461-12.43-15.551-25.746-21.336-39.645
				C1166.738,1133.594,1161.699,1116.086,1158.816,1098.082z"/>
			<path style="fill:#BEC7D5;" d="M1159.84,980.438l1.871-276.141c-36.191,8.52-95.977,10.621-165.055,4.902
				c-6.035,81.785,2.07,271.238,2.07,271.238H1159.84z"/>
			<path style="fill:#BEC7D5;" d="M1621.211,884.781l-39.23-1.715l-22.004-47.981l-48.152,7.535l-17.277-46.969l-49.262,3.656
				l-13.352-47.559l-50.047-0.242l-3.461-17.793c-0.484,0.238-0.969,0.535-1.457,0.75c-16.082,6.969-15.406-18.832-15.703-28.371
				c-5.664,4.242-10.371,9.621-14.762,15.352l9.445,0.781l9.566,49.063l51.348,0.25l13.699,48.773l50.516-3.738l17.734,48.188
				l49.363-7.727l20.816,45.348l49.574,2.164c1.969-6.543,3.934-13.086,5.91-19.625L1621.211,884.781z"/>
		</g>
		<path style="fill:#73273B;" d="M1679.488,473.961c13.965,3.227,35.199,6.957,42.574,0.289c3.316-3-10.422-12.926-6.887-15.637
			c6.945-5.316,27.645,21.445,39.086,1.117c0.531-0.938,1.043-1.938,1.527-3.082c7.148-16.844-27.398-14.512-33.727-18.91
			c-3.398-2.355,21.652,1.297,18.598-1.379c0-14.789-24.742-17.613-26.34-18.77c-4.371-3.152-9.145-5.969-13.98-8.621
			c-0.293,1.828-0.578,3.648-0.91,5.5C1695.813,434.535,1688.02,456.363,1679.488,473.961z"/>
	</g>
	<polygon style="fill:#73273B;" points="927.402,1076.902 928.141,985.352 728.23,985.352 728.969,1076.902 	"/>
	<polygon style="fill:#BEC7D5;" points="729.059,1088.754 927.313,1088.754 927.402,1076.902 728.969,1076.902 	"/>
	<polygon style="fill:#2DB6B9;" points="728.23,985.352 928.141,985.352 928.254,973.504 728.141,973.504 	"/>
	<polygon style="fill:#EB7A33;" points="797.563,1031.867 771.613,1064.887 745.664,1031.867 771.613,998.848 	"/>
	<polygon style="fill:#73273B;" points="759.234,1031.867 771.613,1016.113 783.992,1031.867 771.613,1047.617 	"/>
	<polygon style="fill:#2DB6B9;" points="854.148,1031.867 828.191,1064.887 802.234,1031.867 828.191,998.848 	"/>
	<polygon style="fill:#73273B;" points="815.82,1031.867 828.191,1016.113 840.574,1031.867 828.191,1047.617 	"/>
	<polygon style="fill:#EB7A33;" points="910.719,1031.867 884.762,1064.887 858.809,1031.867 884.762,998.848 	"/>
	<polygon style="fill:#73273B;" points="872.387,1031.867 884.762,1016.113 897.144,1031.867 884.762,1047.617 	"/>
	<path style="fill:#EB7A33;" d="M922.988,1003.394c0,4.313-2.746,7.809-6.137,7.809c-3.379,0-6.133-3.496-6.133-7.809
		s2.754-7.813,6.133-7.813C920.242,995.582,922.988,999.082,922.988,1003.394z"/>
	<path style="fill:#EB7A33;" d="M745.664,1003.394c0,4.313-2.746,7.809-6.145,7.809c-3.391,0-6.133-3.496-6.133-7.809
		s2.742-7.813,6.133-7.813C742.918,995.582,745.664,999.082,745.664,1003.394z"/>
	<path style="fill:#EB7A33;" d="M861.875,1003.394c0,4.313-2.742,7.809-6.141,7.809c-3.395,0-6.137-3.496-6.137-7.809
		s2.742-7.813,6.137-7.813C859.133,995.582,861.875,999.082,861.875,1003.394z"/>
	<path style="fill:#EB7A33;" d="M805.777,1003.394c0,4.313-2.73,7.809-6.137,7.809c-3.379,0-6.133-3.496-6.133-7.809
		s2.754-7.813,6.133-7.813C803.047,995.582,805.777,999.082,805.777,1003.394z"/>
	<path style="fill:#2DB6B9;" d="M922.988,1058.594c0,4.309-2.746,7.809-6.137,7.809c-3.379,0-6.133-3.5-6.133-7.809
		c0-4.316,2.754-7.813,6.133-7.813C920.242,1050.781,922.988,1054.277,922.988,1058.594z"/>
	<path style="fill:#2DB6B9;" d="M745.664,1058.594c0,4.309-2.746,7.809-6.145,7.809c-3.391,0-6.133-3.5-6.133-7.809
		c0-4.316,2.742-7.813,6.133-7.813C742.918,1050.781,745.664,1054.277,745.664,1058.594z"/>
	<path style="fill:#2DB6B9;" d="M861.875,1058.594c0,4.309-2.742,7.809-6.141,7.809c-3.395,0-6.137-3.5-6.137-7.809
		c0-4.316,2.742-7.813,6.137-7.813C859.133,1050.781,861.875,1054.277,861.875,1058.594z"/>
	<path style="fill:#2DB6B9;" d="M805.777,1058.594c0,4.309-2.73,7.809-6.137,7.809c-3.379,0-6.133-3.5-6.133-7.809
		c0-4.316,2.754-7.813,6.133-7.813C803.047,1050.781,805.777,1054.277,805.777,1058.594z"/>
	<path style="fill:#EB7A33;" d="M905.676,817.66c0,54.449-34.691,98.59-77.484,98.59c-42.809,0-77.5-44.141-77.5-98.59
		c0-54.453,34.691-98.594,77.5-98.594C870.984,719.066,905.676,763.207,905.676,817.66z"/>
	<path style="fill:#73273B;" d="M895.293,817.66c0,47.152-30.031,85.379-67.102,85.379c-37.059,0-67.109-38.227-67.109-85.379
		c0-47.16,30.051-85.383,67.109-85.383C865.262,732.277,895.293,770.5,895.293,817.66z"/>
	<polygon style="fill:#2DB6B9;" points="828.191,750.188 845.422,794.606 883.953,801.734 856.074,836.305 862.648,885.129 
		828.191,862.078 793.723,885.129 800.309,836.305 772.43,801.734 810.965,794.606 	"/>
	<polygon style="fill:#73273B;" points="828.191,787.344 835.938,807.297 853.246,810.496 840.707,826.035 843.668,847.969 
		828.191,837.613 812.715,847.969 815.664,826.035 803.137,810.496 820.449,807.297 	"/>
	<polygon style="fill:#2DB6B9;" points="768.313,681.027 738.75,674.129 733.328,711.738 	"/>
	<polygon style="fill:#2DB6B9;" points="887.406,708.824 916.98,715.727 911.539,753.34 	"/>
	<polygon style="fill:#EB7A33;" points="767.656,958.496 737.602,958.496 737.602,920.266 	"/>
	<polygon style="fill:#EB7A33;" points="888.727,958.496 918.789,958.496 918.789,920.266 	"/>
	<polygon style="fill:#73273B;" points="1159.152,1058.273 1159.758,989.359 998.816,989.359 999.402,1058.273 	"/>
	<polygon style="fill:#2DB6B9;" points="999.484,1067.184 1159.082,1067.184 1159.152,1058.273 999.402,1058.273 	"/>
	<polygon style="fill:#2DB6B9;" points="998.816,989.359 1159.758,989.359 1159.84,980.438 998.727,980.438 	"/>
	<polygon style="fill:#EB7A33;" points="1054.621,1024.371 1033.727,1049.223 1012.844,1024.363 1033.727,999.512 	"/>
	<polygon style="fill:#73273B;" points="1023.762,1024.363 1033.727,1012.512 1043.703,1024.371 1033.727,1036.219 	"/>
	<polygon style="fill:#2DB6B9;" points="1100.184,1024.371 1079.273,1049.223 1058.383,1024.363 1079.273,999.512 	"/>
	<polygon style="fill:#73273B;" points="1069.32,1024.363 1079.273,1012.512 1089.246,1024.371 1079.273,1036.219 	"/>
	<polygon style="fill:#EB7A33;" points="1145.734,1024.371 1124.828,1049.223 1103.93,1024.363 1124.828,999.512 	"/>
	<polygon style="fill:#73273B;" points="1114.871,1024.363 1124.828,1012.512 1134.793,1024.371 1124.828,1036.219 	"/>
	<path style="fill:#EB7A33;" d="M1155.605,1002.938c0,3.246-2.211,5.875-4.945,5.875c-2.723,0-4.926-2.629-4.926-5.875
		c0-3.25,2.203-5.883,4.926-5.883C1153.395,997.055,1155.605,999.688,1155.605,1002.938z"/>
	<path style="fill:#EB7A33;" d="M1012.844,1002.938c0,3.246-2.215,5.875-4.949,5.875c-2.738,0-4.938-2.629-4.938-5.875
		c0-3.25,2.199-5.883,4.938-5.883C1010.629,997.055,1012.844,999.688,1012.844,1002.938z"/>
	<path style="fill:#EB7A33;" d="M1106.402,1002.938c0,3.246-2.215,5.875-4.953,5.875c-2.734,0-4.93-2.629-4.93-5.875
		c0-3.25,2.195-5.883,4.93-5.883C1104.188,997.055,1106.402,999.688,1106.402,1002.938z"/>
	<path style="fill:#EB7A33;" d="M1061.234,1002.938c0,3.246-2.195,5.875-4.93,5.875c-2.73,0-4.941-2.629-4.941-5.875
		c0-3.25,2.211-5.883,4.941-5.883C1059.039,997.055,1061.234,999.688,1061.234,1002.938z"/>
	<path style="fill:#2DB6B9;" d="M1155.605,1044.484c0,3.242-2.211,5.879-4.945,5.879c-2.723,0-4.926-2.637-4.926-5.879
		c0-3.25,2.203-5.879,4.926-5.879C1153.395,1038.605,1155.605,1041.234,1155.605,1044.484z"/>
	<path style="fill:#2DB6B9;" d="M1012.844,1044.484c0,3.242-2.215,5.879-4.949,5.879c-2.738,0-4.938-2.637-4.938-5.879
		c0-3.25,2.199-5.879,4.938-5.879C1010.629,1038.605,1012.844,1041.234,1012.844,1044.484z"/>
	<path style="fill:#2DB6B9;" d="M1106.402,1044.484c0,3.242-2.215,5.879-4.953,5.879c-2.734,0-4.93-2.637-4.93-5.879
		c0-3.25,2.195-5.879,4.93-5.879C1104.188,1038.605,1106.402,1041.234,1106.402,1044.484z"/>
	<path style="fill:#2DB6B9;" d="M1061.234,1044.484c0,3.242-2.195,5.879-4.93,5.879c-2.73,0-4.941-2.637-4.941-5.879
		c0-3.25,2.211-5.879,4.941-5.879C1059.039,1038.605,1061.234,1041.234,1061.234,1044.484z"/>
	<path style="fill:#EB7A33;" d="M1141.668,863.129c0,40.984-27.934,74.207-62.395,74.207c-34.441,0-62.387-33.223-62.387-74.207
		c0-40.992,27.945-74.215,62.387-74.215C1113.734,788.914,1141.668,822.137,1141.668,863.129z"/>
	<path style="fill:#73273B;" d="M1133.309,863.129c0,35.492-24.195,64.262-54.035,64.262c-29.832,0-54.02-28.77-54.02-64.262
		c0-35.5,24.188-64.27,54.02-64.27C1109.113,798.859,1133.309,827.629,1133.309,863.129z"/>
	<polygon style="fill:#2DB6B9;" points="1031.074,760.277 1007.281,755.086 1002.918,783.394 	"/>
	<polygon style="fill:#2DB6B9;" points="1126.949,781.203 1150.762,786.398 1146.379,814.707 	"/>
	<polygon style="fill:#EB7A33;" points="1030.539,969.137 1006.348,969.137 1006.348,940.363 	"/>
	<polygon style="fill:#EB7A33;" points="1128.012,969.137 1152.219,969.137 1152.219,940.363 	"/>
	<path style="fill:#73273B;" d="M1650.199,385.492c-19.781-6.621-37.773-6.277-57.598,0.023
		c-16.297,5.18-351.508,278.133-361.863,288.258c-2.418,2.371-6.832,11.957-11.938,24.856
		c-14.785,37.41-35.387,102.894-30.281,102.754c11.91-0.32,26.484-8.305,37.172-12.879c16.105-6.895,31.137-15.559,45.938-24.875
		c0.195,9.301-3.102,29.703,12.016,20.863c15.473-9.051,30.926-24.316,43.109-37.277c19.984,18.559,40.699,36.344,62.266,53.082
		c5.863,4.559,11.754,9.063,17.734,13.48c4.313,3.184,8.68,6.301,13.039,9.414c4.344,3.098,8.707,6.152,13.098,9.184
		c4.41,3.039,8.832,6.082,13.301,9.059c6.188,4.102,12.43,8.102,18.703,12.066c46.512,29.375,95.496,54.777,146.281,75.602
		c1.57-5.242,3.148-10.465,4.73-15.699c0.883-2.949,1.77-5.902,2.66-8.855l-49.574-2.164l-20.816-45.348l-49.363,7.727
		l-17.734-48.188l-50.516,3.738l-13.699-48.773l-51.348-0.25l-9.566-49.063l-9.445-0.781c4.391-5.731,9.098-11.109,14.762-15.352
		c0.297,9.539-0.379,35.34,15.703,28.371c0.488-0.215,0.973-0.512,1.457-0.75l0,0l3.461,17.793l50.047,0.242l13.352,47.559
		l49.262-3.656l17.277,46.969l48.152-7.535l22.004,47.981l42.496,1.855c1.047-3.477,2.078-6.957,3.137-10.438l-0.008,0.004
		l-43.918-3.887l-21.672-42.336l-45.355,4.781l-18.5-43.867l-46.594,1.18l-14.781-44.223l-47.535-2.434l-3.512-14.207v-0.004
		c2.965-1.93,5.906-3.93,8.844-5.547l2.535,10.219l46.938,2.402l14.59,43.676l46.039-1.152l18.246,43.313l44.824-4.73l22.281,43.523
		l40.484,3.586c2.441-8.078,4.867-16.164,7.301-24.246c-1.586-0.652-3.156-1.352-4.738-2.012
		c-78.039-32.574-151.078-77.621-215.551-132.563c6.141-7.34,11.445-15.703,15.535-24.254c1.324,3.113,0.492,7.566,0.781,11.18
		c10.914,2.469,24.652-19.606,30.84-26.5c10.441-11.609,11.594-31.273,22.832-41.262c0.266,14.199,10.617,10.199,18.602,4.199
		c8.039-6.051,14.594-13.691,19.941-22.184c4.578-7.277,8.125-14.965,15.457-19.93c5.195-3.512,11.227-5.371,16.012-9.492
		c7.035-6.063,10.711-14.644,12.68-23.535c1.129-5.141,1.836-17.496,9.824-15.75c3.91,0.852,6.883,6,11.285,4.816
		c3.695-0.992,5.957-6.777,7.488-9.852c5.266-10.523,3.051-25.336,13.918-32.617c7.254-4.867,16.906-4.355,22.527-11.746
		c3.637-4.793,4.75-11.512,9.152-15.762c0.621-0.598,1.316-1.039,2.008-1.488c1.672-19.496,5.641-43.75,9.504-65.164
		c1.098-6.086,2.363-11.949,3.746-17.582C1656.57,387.781,1653.441,386.578,1650.199,385.492z"/>
	<path style="fill:#2DB6B9;" d="M1610.281,850.18c2.195-3.121,1.434-7.434-1.699-9.625c-3.125-2.195-7.43-1.434-9.621,1.695
		c-2.191,3.125-1.434,7.426,1.695,9.625C1603.777,854.059,1608.078,853.309,1610.281,850.18z"/>
	<path style="fill:#BEC7D5;" d="M1415.531,722.059c2.191-3.125,1.434-7.434-1.688-9.625c-3.129-2.191-7.438-1.43-9.629,1.684
		c-2.184,3.133-1.426,7.441,1.688,9.629C1409.039,725.945,1413.34,725.188,1415.531,722.059z"/>
	<path style="fill:#BEC7D5;" d="M1538.609,808.363c2.195-3.121,1.438-7.434-1.691-9.621c-3.129-2.195-7.422-1.438-9.625,1.688
		c-2.195,3.133-1.422,7.434,1.688,9.625C1532.109,812.254,1536.422,811.492,1538.609,808.363z"/>
	<path style="fill:#2DB6B9;" d="M1475.996,767.762c2.191-3.121,1.438-7.434-1.68-9.625c-3.133-2.191-7.445-1.434-9.629,1.691
		c-2.203,3.117-1.441,7.43,1.68,9.633C1469.504,771.644,1473.805,770.891,1475.996,767.762z"/>
	<polygon style="fill:#2DB6B9;" points="1547.207,879.125 1542.781,865.766 1529.426,870.176 1533.84,883.531 	"/>
	<polygon style="fill:#2DB6B9;" points="1395.27,782.832 1409.223,781.086 1410.965,795.051 1397.016,796.785 	"/>
	<polygon style="fill:#BEC7D5;" points="1476.855,840.551 1474.184,826.734 1460.367,829.41 1463.027,843.219 	"/>
	<path style="fill:#73273B;" d="M1735.152,532.559c-0.008-3.57,1.387-6.707,3.391-8.82c2.035-2.125,4.453-3.172,7.008-3.184
		c2.57,0.012,4.973,1.059,7.012,3.184c1.996,2.109,3.387,5.246,3.379,8.82c0,3.293,2.941,5.961,6.566,5.961s6.566-2.668,6.566-5.961
		c-0.012-6.34-2.41-12.184-6.547-16.578c-4.102-4.375-10.168-7.348-16.977-7.34c-6.797-0.008-12.867,2.965-16.973,7.34
		c-4.137,4.387-6.551,10.234-6.559,16.578c0,3.293,2.945,5.961,6.566,5.961S1735.152,535.852,1735.152,532.559z"/>
	<path style="fill:#73273B;" d="M1863.68,760.512c-3.695,6.773-15.457,7.473-26.262,1.57c-10.824-5.898-16.602-16.168-12.918-22.93
		c3.699-6.777,15.457-7.484,26.277-1.582C1861.605,743.477,1867.367,753.738,1863.68,760.512z"/>
	<polygon style="fill:#2DB6B9;" points="1117.492,864.43 1080.672,908.207 1043.867,864.422 1080.672,820.652 	"/>
	<polygon style="fill:#73273B;" points="1063.121,864.422 1080.672,843.543 1098.227,864.43 1080.672,885.301 	"/>
	<path style="fill:#EB7A33;" d="M1120.801,832.84c0,4.734-3.223,8.563-7.219,8.563c-3.977,0-7.191-3.828-7.191-8.563
		c0-4.73,3.215-8.574,7.191-8.574C1117.578,824.266,1120.801,828.109,1120.801,832.84z"/>
	<path style="fill:#EB7A33;" d="M1054.961,832.84c0,4.734-3.215,8.563-7.199,8.563c-3.965,0-7.203-3.828-7.203-8.563
		c0-4.73,3.238-8.574,7.203-8.574C1051.746,824.266,1054.961,828.109,1054.961,832.84z"/>
	<path style="fill:#2DB6B9;" d="M1120.801,893.41c0,4.73-3.223,8.57-7.219,8.57c-3.977,0-7.191-3.84-7.191-8.57
		c0-4.731,3.215-8.567,7.191-8.567C1117.578,884.844,1120.801,888.68,1120.801,893.41z"/>
	<path style="fill:#2DB6B9;" d="M1054.961,893.41c0,4.73-3.215,8.57-7.199,8.57c-3.965,0-7.203-3.84-7.203-8.57
		c0-4.731,3.238-8.567,7.203-8.567C1051.746,884.844,1054.961,888.68,1054.961,893.41z"/>
</g>
</svg>
